REM DIRINDEX 1\3,1\4,1\5,1\6,1\2\7,1\2\8,1\2\9,1\10
REM DIRNAME folder01,folder02,folder03,folder04,folder05,folder06,folder07,folder08,folder09,folder10
TITLE ""
FILE "1-43 Level 3-361-370.mp3" MP3
  TRACK 01 AUDIO
    TITLE "0:"
    INDEX 01 00:00:00
  TRACK 02 AUDIO
    TITLE "7:cjc056_1268"
    INDEX 01 00:00:05
  TRACK 03 AUDIO
    TITLE "0:"
    INDEX 01 00:01:17
  TRACK 04 AUDIO
    TITLE "8:cjc056_1269"
    INDEX 01 00:01:32
  TRACK 05 AUDIO
    TITLE "0:"
    INDEX 01 00:02:47
  TRACK 06 AUDIO
    TITLE "9:cjc056_1270"
    INDEX 01 00:02:61
  TRACK 07 AUDIO
    TITLE "0:"
    INDEX 01 00:04:42
  TRACK 08 AUDIO
    TITLE "7:cjc056_1271"
    INDEX 01 00:05:20
  TRACK 09 AUDIO
    TITLE "0:"
    INDEX 01 00:06:20
  TRACK 10 AUDIO
    TITLE "8:cjc056_1272"
    INDEX 01 00:06:30
  TRACK 11 AUDIO
    TITLE "0:"
    INDEX 01 00:07:35
  TRACK 12 AUDIO
    TITLE "9:cjc056_1273"
    INDEX 01 00:07:51
  TRACK 13 AUDIO
    TITLE "0:"
    INDEX 01 00:08:64
  TRACK 14 AUDIO
    TITLE "8:cjc056_1274"
    INDEX 01 00:09:18
  TRACK 15 AUDIO
    TITLE "0:"
    INDEX 01 00:10:12
  TRACK 16 AUDIO
    TITLE "9:cjc056_1275"
    INDEX 01 00:10:25
  TRACK 17 AUDIO
    TITLE "0:"
    INDEX 01 00:12:01
  TRACK 18 AUDIO
    TITLE "7:cjc056_1276"
    INDEX 01 00:12:54
  TRACK 19 AUDIO
    TITLE "0:"
    INDEX 01 00:13:59
  TRACK 20 AUDIO
    TITLE "8:cjc056_1277"
    INDEX 01 00:13:73
  TRACK 21 AUDIO
    TITLE "0:"
    INDEX 01 00:14:66
  TRACK 22 AUDIO
    TITLE "9:cjc056_1278"
    INDEX 01 00:15:03
  TRACK 23 AUDIO
    TITLE "0:"
    INDEX 01 00:16:65
  TRACK 24 AUDIO
    TITLE "7:cjc056_1279"
    INDEX 01 00:17:41
  TRACK 25 AUDIO
    TITLE "0:"
    INDEX 01 00:18:41
  TRACK 26 AUDIO
    TITLE "8:cjc056_1280"
    INDEX 01 00:18:54
  TRACK 27 AUDIO
    TITLE "0:"
    INDEX 01 00:19:32
  TRACK 28 AUDIO
    TITLE "9:cjc056_1281"
    INDEX 01 00:19:46
  TRACK 29 AUDIO
    TITLE "0:"
    INDEX 01 00:21:09
  TRACK 30 AUDIO
    TITLE "7:cjc056_1282"
    INDEX 01 00:21:60
  TRACK 31 AUDIO
    TITLE "0:"
    INDEX 01 00:22:60
  TRACK 32 AUDIO
    TITLE "8:cjc056_1283"
    INDEX 01 00:22:74
  TRACK 33 AUDIO
    TITLE "0:"
    INDEX 01 00:24:20
  TRACK 34 AUDIO
    TITLE "9:cjc056_1284"
    INDEX 01 00:24:33
  TRACK 35 AUDIO
    TITLE "0:"
    INDEX 01 00:25:70
  TRACK 36 AUDIO
    TITLE "8:cjc056_1285"
    INDEX 01 00:26:17
  TRACK 37 AUDIO
    TITLE "0:"
    INDEX 01 00:27:45
  TRACK 38 AUDIO
    TITLE "9:cjc056_1286"
    INDEX 01 00:27:57
  TRACK 39 AUDIO
    TITLE "0:"
    INDEX 01 00:29:21
  TRACK 40 AUDIO
    TITLE "7:cjc056_1287"
    INDEX 01 00:29:74
  TRACK 41 AUDIO
    TITLE "0:"
    INDEX 01 00:31:04
  TRACK 42 AUDIO
    TITLE "8:cjc056_1288"
    INDEX 01 00:31:18
  TRACK 43 AUDIO
    TITLE "0:"
    INDEX 01 00:31:67
  TRACK 44 AUDIO
    TITLE "9:cjc056_1289"
    INDEX 01 00:32:05
  TRACK 45 AUDIO
    TITLE "0:"
    INDEX 01 00:33:48
  TRACK 46 AUDIO
    TITLE "7:cjc056_1290"
    INDEX 01 00:34:24
  TRACK 47 AUDIO
    TITLE "0:"
    INDEX 01 00:35:33
  TRACK 48 AUDIO
    TITLE "8:cjc056_1291"
    INDEX 01 00:35:47
  TRACK 49 AUDIO
    TITLE "0:"
    INDEX 01 00:36:56
  TRACK 50 AUDIO
    TITLE "9:cjc056_1292"
    INDEX 01 00:36:68
  TRACK 51 AUDIO
    TITLE "0:"
    INDEX 01 00:38:37
  TRACK 52 AUDIO
    TITLE "8:cjc056_1293"
    INDEX 01 00:38:65
  TRACK 53 AUDIO
    TITLE "0:"
    INDEX 01 00:39:64
  TRACK 54 AUDIO
    TITLE "9:cjc056_1294"
    INDEX 01 00:40:03
  TRACK 55 AUDIO
    TITLE "0:"
    INDEX 01 00:41:53
  TRACK 56 AUDIO
    TITLE "7:cjc056_1295"
    INDEX 01 00:42:29
  TRACK 57 AUDIO
    TITLE "0:"
    INDEX 01 00:43:44
  TRACK 58 AUDIO
    TITLE "8:cjc056_1296"
    INDEX 01 00:43:58
  TRACK 59 AUDIO
    TITLE "0:"
    INDEX 01 00:45:10
  TRACK 60 AUDIO
    TITLE "9:cjc056_1297"
    INDEX 01 00:45:26
  TRACK 61 AUDIO
    TITLE "0:"
    INDEX 01 00:46:72
  TRACK 62 AUDIO
    TITLE "7:cjc056_1298"
    INDEX 01 00:47:50
  TRACK 63 AUDIO
    TITLE "0:"
    INDEX 01 00:49:04
  TRACK 64 AUDIO
    TITLE "8:cjc056_1299"
    INDEX 01 00:49:18
  TRACK 65 AUDIO
    TITLE "0:"
    INDEX 01 00:50:25
  TRACK 66 AUDIO
    TITLE "9:cjc056_1300"
    INDEX 01 00:50:39
  TRACK 67 AUDIO
    TITLE "0:"
    INDEX 01 00:52:12
  TRACK 68 AUDIO
    TITLE "7:cjc056_1301"
    INDEX 01 00:52:63
  TRACK 69 AUDIO
    TITLE "0:"
    INDEX 01 00:54:09
  TRACK 70 AUDIO
    TITLE "8:cjc056_1302"
    INDEX 01 00:54:25
  TRACK 71 AUDIO
    TITLE "0:"
    INDEX 01 00:55:53
  TRACK 72 AUDIO
    TITLE "9:cjc056_1303"
    INDEX 01 00:55:63
  TRACK 73 AUDIO
    TITLE "0:"
    INDEX 01 00:57:35
